<svg width="284" height="128" viewBox="0 0 284 128" fill="none" xmlns="http://www.w3.org/2000/svg">
<path d="M1.3916 112.616H4.38721L8.50342 118.314L12.4146 112.616H15.3296V123.5H11.1035V117.941L7.0459 123.639L3.00293 117.941V123.5H1.3916V112.616ZM20.5151 120.431L16.8237 112.616H21.46L24.1406 118.227L26.3013 112.616H28.2202L24.9683 120.431V123.5H20.5151V120.431ZM32.9077 115.363L31.6479 112.616H36.1084L41.4404 123.507H36.6577L35.8521 121.764H31.5601L30.7617 123.507H28.9087L32.9077 115.363ZM35.083 120.087L33.7061 117.099L32.3364 120.087H35.083ZM42.9346 112.616H45.5859L52.4927 118.417L52.5 112.616H54.1113V123.5H51.46L44.5459 117.721V123.5H42.9346V112.616ZM56.8945 112.616H59.8901L64.0063 118.314L67.9175 112.616H70.8325V123.5H66.6064V117.941L62.5488 123.639L58.5059 117.941V123.5H56.8945V112.616ZM76.6333 115.363L75.3735 112.616H79.834L85.166 123.507H80.3833L79.5776 121.764H75.2856L74.4873 123.507H72.6343L76.6333 115.363ZM78.8086 120.087L77.4316 117.099L76.062 120.087H78.8086ZM86.6602 112.616H92.937C93.7476 112.616 94.4556 112.702 95.061 112.873C95.6714 113.043 96.1792 113.283 96.5845 113.59C96.9946 113.898 97.3022 114.267 97.5073 114.696C97.7124 115.126 97.8149 115.6 97.8149 116.117C97.8149 116.757 97.6636 117.326 97.3608 117.824C97.0581 118.317 96.6089 118.71 96.0132 119.003L98.2983 123.507H93.5156L91.7871 119.552H90.8936V123.5H86.6602V112.616ZM91.1499 118.227C91.4966 118.227 91.8066 118.178 92.0801 118.08C92.3535 117.982 92.5854 117.846 92.7759 117.67C92.9663 117.489 93.1128 117.277 93.2153 117.033C93.3179 116.784 93.3691 116.513 93.3691 116.22C93.3691 115.927 93.3179 115.658 93.2153 115.414C93.1128 115.165 92.9663 114.953 92.7759 114.777C92.5854 114.596 92.3535 114.457 92.0801 114.359C91.8066 114.262 91.4966 114.213 91.1499 114.213H90.9009L90.8936 118.227H91.1499ZM104.883 112.616H107.878L111.995 118.314L115.906 112.616H118.821V123.5H114.595V117.941L110.537 123.639L106.494 117.941V123.5H104.883V112.616ZM120.974 118.036C120.974 117.211 121.106 116.457 121.37 115.773C121.633 115.084 122.026 114.494 122.549 114C123.071 113.507 123.723 113.124 124.504 112.851C125.286 112.577 126.194 112.44 127.229 112.44C128.264 112.44 129.172 112.577 129.954 112.851C130.735 113.124 131.387 113.507 131.909 114C132.432 114.494 132.825 115.084 133.088 115.773C133.352 116.457 133.484 117.211 133.484 118.036C133.484 118.871 133.352 119.635 133.088 120.329C132.825 121.022 132.432 121.615 131.909 122.108C131.387 122.602 130.735 122.985 129.954 123.258C129.172 123.532 128.264 123.668 127.229 123.668C126.194 123.668 125.286 123.532 124.504 123.258C123.723 122.985 123.071 122.602 122.549 122.108C122.026 121.615 121.633 121.022 121.37 120.329C121.106 119.635 120.974 118.871 120.974 118.036ZM127.229 122.152C127.522 122.152 127.781 122.101 128.005 121.999C128.23 121.896 128.418 121.696 128.569 121.398C128.721 121.1 128.835 120.683 128.914 120.146C128.992 119.608 129.031 118.905 129.031 118.036C129.031 117.177 128.992 116.481 128.914 115.949C128.835 115.417 128.721 115.004 128.569 114.711C128.418 114.418 128.23 114.22 128.005 114.118C127.781 114.015 127.522 113.964 127.229 113.964C126.936 113.964 126.675 114.015 126.445 114.118C126.221 114.22 126.033 114.418 125.881 114.711C125.73 115.004 125.615 115.417 125.537 115.949C125.459 116.481 125.42 117.177 125.42 118.036C125.42 118.905 125.459 119.608 125.537 120.146C125.615 120.683 125.73 121.1 125.881 121.398C126.033 121.696 126.221 121.896 126.445 121.999C126.675 122.101 126.936 122.152 127.229 122.152ZM135.63 112.616H138.281L145.188 118.417L145.195 112.616H146.807V123.5H144.155L137.241 117.721V123.5H135.63V112.616ZM149.59 112.616H158.789V114.293H153.831L153.823 117.23H157.617V118.908H153.823V121.823H158.789V123.5H149.59V112.616ZM163.367 120.431L159.675 112.616H164.312L166.992 118.227L169.153 112.616H171.072L167.82 120.431V123.5H163.367V120.431ZM177.305 112.616H180.3L184.417 118.314L188.328 112.616H191.243V123.5H187.017V117.941L182.959 123.639L178.916 117.941V123.5H177.305V112.616ZM197.043 115.363L195.784 112.616H200.244L205.576 123.507H200.793L199.988 121.764H195.696L194.897 123.507H193.044L197.043 115.363ZM199.219 120.087L197.842 117.099L196.472 120.087H199.219ZM207.07 112.616H211.545C212.805 112.616 213.896 112.736 214.819 112.975C215.742 113.209 216.506 113.556 217.112 114.015C217.717 114.474 218.167 115.038 218.459 115.707C218.752 116.376 218.899 117.143 218.899 118.007C218.899 118.778 218.752 119.499 218.459 120.167C218.167 120.832 217.717 121.413 217.112 121.911C216.506 122.404 215.742 122.792 214.819 123.075C213.896 123.358 212.805 123.5 211.545 123.5H207.07V112.616ZM211.304 121.903C211.792 121.903 212.231 121.828 212.622 121.676C213.013 121.525 213.342 121.291 213.611 120.973C213.884 120.656 214.092 120.253 214.233 119.765C214.38 119.271 214.453 118.683 214.453 118C214.453 117.321 214.38 116.742 214.233 116.264C214.087 115.785 213.877 115.395 213.604 115.092C213.33 114.784 212.998 114.562 212.607 114.425C212.222 114.284 211.79 114.213 211.311 114.213L211.304 121.903ZM221.045 112.616H230.244V114.293H225.286L225.278 117.23H229.072V118.908H225.278V121.823H230.244V123.5H221.045V112.616ZM236.982 112.616H246.182V114.293H241.223L241.216 117.23H245.01V118.908H241.216V121.823H246.182V123.5H236.982V112.616ZM251.375 115.363L250.115 112.616H254.575L259.907 123.507H255.125L254.319 121.764H250.027L249.229 123.507H247.375L251.375 115.363ZM253.55 120.087L252.173 117.099L250.803 120.087H253.55ZM261.548 121.083C262.065 121.347 262.607 121.544 263.174 121.676C263.74 121.808 264.268 121.874 264.756 121.874C265.317 121.874 265.728 121.793 265.986 121.632C266.25 121.471 266.382 121.251 266.382 120.973C266.382 120.885 266.365 120.795 266.331 120.702C266.301 120.609 266.24 120.519 266.147 120.431C266.06 120.338 265.935 120.248 265.774 120.16C265.618 120.067 265.413 119.977 265.159 119.889L263.848 119.442C262.91 119.12 262.205 118.686 261.731 118.139C261.257 117.587 261.021 116.933 261.021 116.176C261.021 115.688 261.123 115.219 261.328 114.77C261.533 114.315 261.843 113.917 262.258 113.576C262.673 113.229 263.196 112.953 263.826 112.748C264.46 112.543 265.203 112.44 266.052 112.44C266.472 112.44 266.875 112.465 267.261 112.514C267.646 112.562 268.008 112.626 268.345 112.704C268.687 112.782 268.999 112.873 269.282 112.975C269.565 113.073 269.814 113.17 270.029 113.268L269.238 114.696C269.082 114.599 268.916 114.513 268.74 114.44C268.569 114.367 268.396 114.306 268.22 114.257C268.049 114.208 267.881 114.171 267.715 114.147C267.549 114.123 267.397 114.11 267.261 114.11C267.026 114.11 266.821 114.142 266.646 114.206C266.47 114.264 266.321 114.345 266.199 114.447C266.082 114.545 265.991 114.657 265.928 114.784C265.869 114.906 265.84 115.028 265.84 115.15C265.84 115.258 265.864 115.363 265.913 115.465C265.967 115.563 266.055 115.661 266.177 115.758C266.304 115.851 266.467 115.946 266.667 116.044C266.873 116.137 267.126 116.234 267.429 116.337L268.308 116.63C269.26 116.947 269.988 117.384 270.491 117.941C270.994 118.498 271.245 119.171 271.245 119.962C271.245 120.5 271.123 120.995 270.879 121.449C270.64 121.903 270.281 122.296 269.802 122.628C269.324 122.956 268.728 123.212 268.015 123.397C267.307 123.578 266.484 123.668 265.547 123.668C265.098 123.668 264.663 123.644 264.243 123.595C263.828 123.551 263.42 123.483 263.02 123.39C262.625 123.297 262.234 123.18 261.848 123.039C261.462 122.897 261.077 122.731 260.691 122.541L261.548 121.083ZM275.676 120.431L271.985 112.616H276.621L279.302 118.227L281.462 112.616H283.381L280.129 120.431V123.5H275.676V120.431Z" fill="#323844"/>
<path d="M33.0107 66.7871H22.6592V61.1963H57.4736V66.7871H47.1221V97.5H33.0107V66.7871ZM62.7715 61.2207H76.8828V76.4307H87.3076V61.2207H101.443L101.419 97.5H87.3076V82.0215H76.8828V97.5H62.7715V61.2207ZM110.721 61.2207H141.385V66.8115H124.856L124.832 76.6016H137.479V82.1924H124.832V91.9092H141.385V97.5H110.721V61.2207Z" fill="#323844"/>
<path d="M164.334 89.4434C166.059 90.3223 167.866 90.9814 169.754 91.4209C171.642 91.8604 173.4 92.0801 175.027 92.0801C176.899 92.0801 178.266 91.8115 179.129 91.2744C180.008 90.7373 180.447 90.0049 180.447 89.0771C180.447 88.7842 180.39 88.4831 180.276 88.1738C180.179 87.8646 179.975 87.5635 179.666 87.2705C179.373 86.9613 178.958 86.6602 178.421 86.3672C177.9 86.0579 177.216 85.7568 176.37 85.4639L172 83.9746C168.875 82.9004 166.523 81.4518 164.944 79.6289C163.366 77.7897 162.576 75.6087 162.576 73.0859C162.576 71.4583 162.918 69.8958 163.602 68.3984C164.285 66.8848 165.319 65.5583 166.702 64.4189C168.086 63.2633 169.827 62.3438 171.927 61.6602C174.043 60.9766 176.517 60.6348 179.349 60.6348C180.748 60.6348 182.091 60.7161 183.377 60.8789C184.663 61.0417 185.867 61.2533 186.99 61.5137C188.13 61.7741 189.171 62.0752 190.115 62.417C191.059 62.7425 191.889 63.068 192.605 63.3936L189.969 68.1543C189.448 67.8288 188.895 67.5439 188.309 67.2998C187.739 67.0557 187.161 66.8522 186.575 66.6895C186.006 66.5267 185.444 66.4046 184.891 66.3232C184.337 66.2419 183.833 66.2012 183.377 66.2012C182.596 66.2012 181.912 66.307 181.326 66.5186C180.74 66.7139 180.244 66.9824 179.837 67.3242C179.446 67.6497 179.145 68.0241 178.934 68.4473C178.738 68.8542 178.641 69.2611 178.641 69.668C178.641 70.026 178.722 70.376 178.885 70.7178C179.064 71.0433 179.357 71.3688 179.764 71.6943C180.187 72.0036 180.732 72.321 181.399 72.6465C182.083 72.9557 182.929 73.2812 183.938 73.623L186.868 74.5996C190.042 75.6576 192.467 77.1143 194.144 78.9697C195.82 80.8252 196.658 83.0713 196.658 85.708C196.658 87.4984 196.251 89.1504 195.438 90.6641C194.64 92.1777 193.444 93.488 191.849 94.5947C190.254 95.6852 188.268 96.5397 185.892 97.1582C183.532 97.7604 180.789 98.0615 177.664 98.0615C176.167 98.0615 174.718 97.9801 173.318 97.8174C171.935 97.6709 170.576 97.443 169.241 97.1338C167.923 96.8245 166.621 96.4339 165.335 95.9619C164.049 95.4899 162.763 94.9365 161.478 94.3018L164.334 89.4434ZM203.445 61.2207H217.581L217.557 97.5H203.445V61.2207ZM234.744 80.0684L222.977 61.2207H238.919L245.999 72.5488L253.226 61.2207H259.598L249.002 77.3828L261.6 97.5L245.657 97.5244L237.698 84.8291L229.471 97.5244H223.074L234.744 80.0684Z" fill="#E10404"/>
<path d="M124.5 0L181.5 0.5L153.5 49.5H94L124.5 0Z" fill="#E10404"/>
<path d="M124.422 0.254728L153.5 49.5002" stroke="#840202" stroke-opacity="0.18"/>
</svg>
